<svg xmlns="http://www.w3.org/2000/svg" viewBox="0 0 180 225"><g id="Layer_1" data-name="Layer 1"><path d="M58.6,162.38v26.25a.38.38,0,0,1-.37.37H55.47a3.73,3.73,0,0,1-3.14-1.71l-12.4-19.16.43,9.57v10.93A.38.38,0,0,1,40,189h-3.6a.38.38,0,0,1-.38-.37V162.38a.38.38,0,0,1,.38-.38h2.71a3.75,3.75,0,0,1,3.15,1.71l12.39,19.12-.39-9.53V162.38a.38.38,0,0,1,.38-.38h3.61A.38.38,0,0,1,58.6,162.38Z"/><path d="M95.51,189H91.68a.37.37,0,0,1-.34-.51l10.11-26.13A.56.56,0,0,1,102,162h4.78a.55.55,0,0,1,.52.36l10.12,26.13a.37.37,0,0,1-.35.51h-3.82a.37.37,0,0,1-.35-.24l-8.16-21.52a.38.38,0,0,0-.7,0l-8.16,21.52A.39.39,0,0,1,95.51,189Z"/><path d="M143.92,188.39l-7.59-9.69c4.28-.81,6.79-3.7,6.79-8.14,0-5.09-3.32-8.56-9.18-8.56H123.36a.57.57,0,0,0-.57.56h0a3.61,3.61,0,0,0,3.61,3.61h7.08c3.55,0,5.24,1.81,5.24,4.43s-1.65,4.48-5.24,4.48H123.36a.57.57,0,0,0-.57.56v13a.38.38,0,0,0,.38.37h3.61a.38.38,0,0,0,.37-.37v-9.7h4.17l6.59,8.6a3.74,3.74,0,0,0,3,1.47h2.74A.38.38,0,0,0,143.92,188.39Z"/><path d="M84.09,162H67.33a.5.5,0,0,0-.5.5h0a3.67,3.67,0,0,0,3.67,3.67H84.09a.38.38,0,0,0,.37-.38v-3.41A.38.38,0,0,0,84.09,162Zm0,22.83H71.57a.37.37,0,0,1-.38-.37v-6.77a.38.38,0,0,1,.38-.38H83.12a.37.37,0,0,0,.38-.37v-3.42a.37.37,0,0,0-.38-.37H67.4a.57.57,0,0,0-.57.56v14.73a.57.57,0,0,0,.57.56H84.09a.38.38,0,0,0,.37-.37v-3.42A.38.38,0,0,0,84.09,184.83Z"/><path d="M122.69,41.49,100.11,75a2.4,2.4,0,0,0,3.56,3.15L125.9,58.89a.9.9,0,0,1,1.48.68v60.35a.9.9,0,0,1-1.59.57L58.64,40.07A11.53,11.53,0,0,0,49.85,36H47.51A11.51,11.51,0,0,0,36,47.51v85A11.51,11.51,0,0,0,47.51,144h0a11.49,11.49,0,0,0,9.8-5.49L79.89,105a2.4,2.4,0,0,0-3.56-3.15L54.1,121.11a.9.9,0,0,1-1.48-.68V60.08a.9.9,0,0,1,1.59-.57l67.15,80.42a11.53,11.53,0,0,0,8.79,4.07h2.34A11.51,11.51,0,0,0,144,132.49v-85A11.51,11.51,0,0,0,132.49,36h0A11.49,11.49,0,0,0,122.69,41.49Z"/></g></svg>