<svg width="25" height="24" viewBox="0 0 25 24" fill="none" xmlns="http://www.w3.org/2000/svg">
<path d="M20.7877 17.8969C20.3456 16.8496 19.704 15.8984 18.8987 15.0961C18.0958 14.2915 17.1447 13.65 16.0979 13.207C16.0885 13.2023 16.0792 13.2 16.0698 13.1953C17.5299 12.1406 18.4792 10.4227 18.4792 8.48438C18.4792 5.27344 15.8776 2.67188 12.6667 2.67188C9.45572 2.67188 6.85415 5.27344 6.85415 8.48438C6.85415 10.4227 7.80337 12.1406 9.26353 13.1977C9.25415 13.2023 9.24478 13.2047 9.2354 13.2094C8.1854 13.6523 7.24322 14.2875 6.43462 15.0984C5.63004 15.9013 4.98854 16.8524 4.54556 17.8992C4.11038 18.924 3.87567 20.0228 3.85415 21.1359C3.85353 21.161 3.85792 21.1858 3.86706 21.2091C3.8762 21.2324 3.88991 21.2537 3.90739 21.2716C3.92486 21.2895 3.94574 21.3037 3.9688 21.3134C3.99186 21.3231 4.01663 21.3281 4.04165 21.3281H5.4479C5.55103 21.3281 5.63306 21.2461 5.6354 21.1453C5.68228 19.3359 6.40884 17.6414 7.69322 16.357C9.02212 15.0281 10.787 14.2969 12.6667 14.2969C14.5463 14.2969 16.3112 15.0281 17.6401 16.357C18.9245 17.6414 19.651 19.3359 19.6979 21.1453C19.7002 21.2484 19.7823 21.3281 19.8854 21.3281H21.2917C21.3167 21.3281 21.3414 21.3231 21.3645 21.3134C21.3876 21.3037 21.4084 21.2895 21.4259 21.2716C21.4434 21.2537 21.4571 21.2324 21.4663 21.2091C21.4754 21.1858 21.4798 21.161 21.4792 21.1359C21.4557 20.0156 21.2237 18.9258 20.7877 17.8969ZM12.6667 12.5156C11.5909 12.5156 10.5784 12.0961 9.81665 11.3344C9.05494 10.5727 8.6354 9.56016 8.6354 8.48438C8.6354 7.40859 9.05494 6.39609 9.81665 5.63437C10.5784 4.87266 11.5909 4.45312 12.6667 4.45312C13.7424 4.45312 14.7549 4.87266 15.5167 5.63437C16.2784 6.39609 16.6979 7.40859 16.6979 8.48438C16.6979 9.56016 16.2784 10.5727 15.5167 11.3344C14.7549 12.0961 13.7424 12.5156 12.6667 12.5156Z" fill="#8C8D99"/>
</svg>
